<svg width="34" height="34" viewBox="0 0 34 34" fill="none" xmlns="http://www.w3.org/2000/svg">
<path d="M27.2 0L13.1591 14.0397C11.6351 13.5777 10.0241 13.479 8.45508 13.7514C6.88606 14.0239 5.40262 14.6599 4.12355 15.6086C2.84448 16.5573 1.80531 17.7923 1.08926 19.2147C0.37321 20.6372 0.000165745 22.2075 0 23.8C0 26.5052 1.07464 29.0996 2.98751 31.0125C4.90038 32.9254 7.49479 34 10.2 34C11.7925 33.9997 13.3629 33.6265 14.7853 32.9103C16.2077 32.1941 17.4426 31.1548 18.3912 29.8757C19.3398 28.5965 19.9757 27.1129 20.248 25.5438C20.5202 23.9748 20.4213 22.3637 19.9591 20.8397L22.6667 18.1333V15.8667H24.9333L34 6.8V0H27.2ZM31.7333 5.86047L23.9949 13.6H20.4V17.1938L18.3566 19.2361L17.3955 20.1971L17.7899 21.4971C18.0177 22.2473 18.1333 23.0214 18.1333 23.8C18.1333 28.1747 14.5735 31.7333 10.2 31.7333C5.82647 31.7333 2.26667 28.1747 2.26667 23.8C2.26667 19.4253 5.82647 15.8667 10.2 15.8667C10.9775 15.8667 11.7527 15.9823 12.5018 16.2089L13.8006 16.6033L14.7617 15.6423L28.1384 2.26667H31.7333V5.86047Z" fill="black"/>
<path d="M7.93293 28.3331C9.18477 28.3331 10.1996 27.3183 10.1996 26.0665C10.1996 24.8146 9.18477 23.7998 7.93293 23.7998C6.68108 23.7998 5.66626 24.8146 5.66626 26.0665C5.66626 27.3183 6.68108 28.3331 7.93293 28.3331Z" fill="black"/>
<path d="M22.2651 10.9333L29.0651 4.1333L29.8664 4.93457L23.0664 11.7346L22.2651 10.9333Z" fill="black"/>
</svg>