<svg width="34" height="26" viewBox="0 0 34 26" fill="none" xmlns="http://www.w3.org/2000/svg">
<path d="M33.6446 3.54933L32.2959 2.20068L19.8032 14.6934C18.2416 16.255 15.6153 16.255 14.0537 14.6934L1.56105 2.27167L0.212402 3.62031L9.51094 12.9188L0.212402 22.2174L1.56105 23.566L10.8596 14.2675L12.7051 16.113C13.8408 17.2487 15.3314 17.8875 16.893 17.8875C18.4546 17.8875 19.9452 17.2487 21.0809 16.113L22.9264 14.2675L32.2249 23.566L33.5736 22.2174L24.275 12.9188L33.6446 3.54933Z" fill="black"/>
<path d="M31.0188 25.9791H2.98121C1.34864 25.9791 0 24.6305 0 22.9979V2.98121C0 1.34864 1.34864 0 2.98121 0H31.0188C32.6514 0 34 1.34864 34 2.98121V22.9979C34 24.6305 32.6514 25.9791 31.0188 25.9791ZM2.91023 1.91649C2.34238 1.91649 1.91649 2.34238 1.91649 2.91023V22.9269C1.91649 23.4948 2.34238 23.9207 2.91023 23.9207H30.9478C31.5157 23.9207 31.9415 23.4948 31.9415 22.9269V2.91023C31.9415 2.34238 31.5157 1.91649 30.9478 1.91649H2.91023Z" fill="black"/>
</svg>