<svg width="26" height="26" viewBox="0 0 26 26" fill="none" xmlns="http://www.w3.org/2000/svg">
<path d="M17.7296 13.9221C19.0034 12.92 19.9331 11.5457 20.3895 9.99051C20.8459 8.43533 20.8061 6.77658 20.2759 5.24503C19.7456 3.71347 18.7512 2.38528 17.4309 1.44522C16.1106 0.505168 14.5302 0 12.9094 0C11.2886 0 9.70819 0.505168 8.38791 1.44522C7.06764 2.38528 6.07319 3.71347 5.54292 5.24503C5.01266 6.77658 4.97294 8.43533 5.4293 9.99051C5.88566 11.5457 6.8154 12.92 8.08918 13.9221C5.90654 14.7966 4.00211 16.2469 2.57891 18.1186C1.15572 19.9902 0.267119 22.213 0.00783687 24.55C-0.0109313 24.7206 0.00409053 24.8933 0.0520444 25.0581C0.0999983 25.2229 0.179945 25.3766 0.287321 25.5106C0.504175 25.781 0.819587 25.9543 1.16417 25.9922C1.50875 26.0301 1.85428 25.9295 2.12474 25.7127C2.3952 25.4958 2.56843 25.1804 2.60634 24.8358C2.89163 22.296 4.10267 19.9504 6.00806 18.2471C7.91346 16.5437 10.3796 15.6021 12.9354 15.6021C15.4911 15.6021 17.9573 16.5437 19.8627 18.2471C21.7681 19.9504 22.9791 22.296 23.2644 24.8358C23.2998 25.1551 23.4521 25.4499 23.692 25.6635C23.932 25.877 24.2425 25.9941 24.5637 25.9922H24.7066C25.0472 25.953 25.3585 25.7808 25.5726 25.5131C25.7868 25.2454 25.8865 24.9039 25.8499 24.563C25.5894 22.2194 24.696 19.9909 23.2655 18.1164C21.835 16.2418 19.9213 14.7919 17.7296 13.9221ZM12.9094 12.9996C11.8815 12.9996 10.8767 12.6948 10.0221 12.1238C9.16745 11.5527 8.50134 10.7411 8.10799 9.79145C7.71464 8.84183 7.61173 7.79688 7.81225 6.78876C8.01278 5.78064 8.50775 4.85462 9.23456 4.12781C9.96138 3.401 10.8874 2.90603 11.8955 2.7055C12.9036 2.50497 13.9486 2.60789 14.8982 3.00124C15.8478 3.39459 16.6595 4.0607 17.2305 4.91535C17.8016 5.76999 18.1064 6.77478 18.1064 7.80265C18.1064 9.18098 17.5589 10.5029 16.5842 11.4775C15.6096 12.4521 14.2877 12.9996 12.9094 12.9996Z" fill="black"/>
</svg>